<svg width="25" height="25" viewBox="0 0 25 25" fill="none" xmlns="http://www.w3.org/2000/svg">
<path d="M13.5417 3.125C13.6798 3.125 13.8123 3.17987 13.91 3.27755C14.0076 3.37522 14.0625 3.5077 14.0625 3.64583V5.72917C14.0625 5.8673 14.0076 5.99978 13.91 6.09745C13.8123 6.19513 13.6798 6.25 13.5417 6.25C13.4035 6.25 13.2711 6.19513 13.1734 6.09745C13.0757 5.99978 13.0208 5.8673 13.0208 5.72917V5.20833H9.89583V4.16667H13.0208V3.64583C13.0208 3.5077 13.0757 3.37522 13.1734 3.27755C13.2711 3.17987 13.4035 3.125 13.5417 3.125Z" fill="black"/>
<path d="M8.33333 3.125C8.1952 3.125 8.06272 3.17987 7.96505 3.27755C7.86737 3.37522 7.8125 3.5077 7.8125 3.64583V4.16667H6.77083C6.35643 4.16667 5.959 4.33129 5.66598 4.62431C5.37295 4.91734 5.20833 5.31477 5.20833 5.72917V18.2292C5.20833 18.6436 5.37295 19.041 5.66598 19.334C5.959 19.627 6.35643 19.7917 6.77083 19.7917H15.625C16.0394 19.7917 16.4368 19.627 16.7299 19.334C17.0229 19.041 17.1875 18.6436 17.1875 18.2292V5.72917C17.1875 5.31477 17.0229 4.91734 16.7299 4.62431C16.4368 4.33129 16.0394 4.16667 15.625 4.16667H15.1042V5.20833H15.625C15.7631 5.20833 15.8956 5.26321 15.9933 5.36088C16.091 5.45856 16.1458 5.59103 16.1458 5.72917V18.2292C16.1458 18.3673 16.091 18.4998 15.9933 18.5975C15.8956 18.6951 15.7631 18.75 15.625 18.75H6.77083C6.6327 18.75 6.50022 18.6951 6.40255 18.5975C6.30487 18.4998 6.25 18.3673 6.25 18.2292V5.72917C6.25 5.59103 6.30487 5.45856 6.40255 5.36088C6.50022 5.26321 6.6327 5.20833 6.77083 5.20833H7.8125V5.72917C7.8125 5.8673 7.86737 5.99978 7.96505 6.09745C8.06272 6.19513 8.1952 6.25 8.33333 6.25C8.47147 6.25 8.60394 6.19513 8.70162 6.09745C8.79929 5.99978 8.85417 5.8673 8.85417 5.72917V3.64583C8.85417 3.5077 8.79929 3.37522 8.70162 3.27755C8.60394 3.17987 8.47147 3.125 8.33333 3.125Z" fill="black"/>
<path d="M7.29167 9.89583C7.29167 9.7577 7.34654 9.62522 7.44422 9.52755C7.54189 9.42987 7.67437 9.375 7.8125 9.375H14.5833C14.7215 9.375 14.8539 9.42987 14.9516 9.52755C15.0493 9.62522 15.1042 9.7577 15.1042 9.89583C15.1042 10.034 15.0493 10.1664 14.9516 10.2641C14.8539 10.3618 14.7215 10.4167 14.5833 10.4167H7.8125C7.67437 10.4167 7.54189 10.3618 7.44422 10.2641C7.34654 10.1664 7.29167 10.034 7.29167 9.89583ZM7.8125 11.9792C7.67437 11.9792 7.54189 12.034 7.44422 12.1317C7.34654 12.2294 7.29167 12.3619 7.29167 12.5C7.29167 12.6381 7.34654 12.7706 7.44422 12.8683C7.54189 12.966 7.67437 13.0208 7.8125 13.0208H11.4583C11.5965 13.0208 11.7289 12.966 11.8266 12.8683C11.9243 12.7706 11.9792 12.6381 11.9792 12.5C11.9792 12.3619 11.9243 12.2294 11.8266 12.1317C11.7289 12.034 11.5965 11.9792 11.4583 11.9792H7.8125ZM7.29167 15.1042C7.29167 14.966 7.34654 14.8336 7.44422 14.7359C7.54189 14.6382 7.67437 14.5833 7.8125 14.5833H13.5417C13.6798 14.5833 13.8123 14.6382 13.91 14.7359C14.0076 14.8336 14.0625 14.966 14.0625 15.1042C14.0625 15.2423 14.0076 15.3748 13.91 15.4725C13.8123 15.5701 13.6798 15.625 13.5417 15.625H7.8125C7.67437 15.625 7.54189 15.5701 7.44422 15.4725C7.34654 15.3748 7.29167 15.2423 7.29167 15.1042Z" fill="black"/>
<path d="M6.77083 20.8334C6.08017 20.8334 5.41779 20.559 4.92941 20.0706C4.44103 19.5823 4.16667 18.9199 4.16667 18.2292V5.20837H3.125V18.2292C3.125 19.1961 3.50911 20.1235 4.19284 20.8072C4.87657 21.4909 5.8039 21.875 6.77083 21.875H15.625V20.8334H6.77083Z" fill="black"/>
<path fill-rule="evenodd" clip-rule="evenodd" d="M18.75 6.77087C18.75 6.35647 18.9146 5.95905 19.2076 5.66602C19.5007 5.37299 19.8981 5.20837 20.3125 5.20837C20.7269 5.20837 21.1243 5.37299 21.4174 5.66602C21.7104 5.95905 21.875 6.35647 21.875 6.77087V17.3454L20.3125 19.6891L18.75 17.3454V6.77087ZM20.3125 6.25004C20.1744 6.25004 20.0419 6.30491 19.9442 6.40259C19.8465 6.50026 19.7917 6.63274 19.7917 6.77087V7.81254H20.8333V6.77087C20.8333 6.63274 20.7785 6.50026 20.6808 6.40259C20.5831 6.30491 20.4506 6.25004 20.3125 6.25004ZM20.3125 17.811L20.8333 17.0297V8.85421H19.7917V17.0297L20.3125 17.811Z" fill="black"/>
</svg>
