<svg width="15" height="15" viewBox="0 0 15 15" fill="none" xmlns="http://www.w3.org/2000/svg">
<path d="M10.8 5.80003C10.8828 5.71117 10.9279 5.59364 10.9257 5.4722C10.9236 5.35076 10.8744 5.2349 10.7885 5.14901C10.7026 5.06313 10.5868 5.01393 10.4653 5.01179C10.3439 5.00965 10.2264 5.05473 10.1375 5.13753L6.40625 8.86878L4.8625 7.32503C4.77364 7.24223 4.65611 7.19715 4.53467 7.19929C4.41323 7.20143 4.29737 7.25063 4.21148 7.33651C4.1256 7.4224 4.0764 7.53826 4.07426 7.6597C4.07212 7.78114 4.1172 7.89867 4.2 7.98753L6.075 9.86253C6.16289 9.95031 6.28203 9.99961 6.40625 9.99961C6.53046 9.99961 6.6496 9.95031 6.7375 9.86253L10.8 5.80003Z" fill="black"/>
<path d="M2.34375 1.25H12.6562C13.26 1.25 13.75 1.74 13.75 2.34375V12.6562C13.75 12.9463 13.6348 13.2245 13.4296 13.4296C13.2245 13.6348 12.9463 13.75 12.6562 13.75H2.34375C2.05367 13.75 1.77547 13.6348 1.57035 13.4296C1.36523 13.2245 1.25 12.9463 1.25 12.6562V2.34375C1.25 1.74 1.74 1.25 2.34375 1.25ZM2.1875 2.34375V12.6562C2.1875 12.7425 2.2575 12.8125 2.34375 12.8125H12.6562C12.6977 12.8125 12.7374 12.796 12.7667 12.7667C12.796 12.7374 12.8125 12.6977 12.8125 12.6562V2.34375C12.8125 2.30231 12.796 2.26257 12.7667 2.23326C12.7374 2.20396 12.6977 2.1875 12.6562 2.1875H2.34375C2.30231 2.1875 2.26257 2.20396 2.23326 2.23326C2.20396 2.26257 2.1875 2.30231 2.1875 2.34375Z" fill="black"/>
</svg>
