<svg width="7" height="7" viewBox="0 0 7 7" fill="none" xmlns="http://www.w3.org/2000/svg">
<path d="M1 4C0.867392 4 0.740215 3.94732 0.646447 3.85355C0.552679 3.75979 0.5 3.63261 0.5 3.5C0.5 3.36739 0.552679 3.24021 0.646447 3.14645C0.740215 3.05268 0.867392 3 1 3H6C6.13261 3 6.25979 3.05268 6.35355 3.14645C6.44732 3.24021 6.5 3.36739 6.5 3.5C6.5 3.63261 6.44732 3.75979 6.35355 3.85355C6.25979 3.94732 6.13261 4 6 4H1Z" fill="#272343"/>
<path d="M3 1C3 0.867392 3.05268 0.740215 3.14645 0.646447C3.24021 0.552679 3.36739 0.5 3.5 0.5C3.63261 0.5 3.75979 0.552679 3.85355 0.646447C3.94732 0.740215 4 0.867392 4 1V6C4 6.13261 3.94732 6.25979 3.85355 6.35355C3.75979 6.44732 3.63261 6.5 3.5 6.5C3.36739 6.5 3.24021 6.44732 3.14645 6.35355C3.05268 6.25979 3 6.13261 3 6V1Z" fill="#272343"/>
</svg>
