<svg width="30" height="30" viewBox="0 0 30 30" fill="none" xmlns="http://www.w3.org/2000/svg">
<path d="M10.0025 8.75C10.0175 6.03125 10.1375 4.55875 11.0988 3.59875C12.1963 2.5 13.965 2.5 17.5 2.5H18.75C22.285 2.5 24.0538 2.5 25.1513 3.59875C26.25 4.69625 26.25 6.465 26.25 10V20C26.25 23.535 26.25 25.3038 25.1513 26.4013C24.0538 27.5 22.285 27.5 18.75 27.5H17.5C13.9638 27.5 12.1963 27.5 11.0988 26.4013C10.1375 25.4413 10.0175 23.9687 10.0025 21.25" stroke="black" stroke-width="1.5" stroke-linecap="round"/>
<path opacity="0.5" d="M10 24.375C7.05375 24.375 5.58 24.375 4.665 23.46C3.75 22.5437 3.75 21.0713 3.75 18.125V11.875C3.75 8.92875 3.75 7.455 4.665 6.54C5.58 5.625 7.05375 5.625 10 5.625" stroke="black" stroke-width="1.5"/>
<path d="M18.75 15H7.5M7.5 15L10 17.5M7.5 15L10 12.5" stroke="black" stroke-width="1.5" stroke-linecap="round" stroke-linejoin="round"/>
</svg>
